<?xml version="1.0" encoding="UTF-8" standalone="no"?>
<!-- Created with Inkscape (http://www.inkscape.org/) -->

<svg
   width="1024"
   height="1024"
   viewBox="0 0 270.93333 270.93333"
   version="1.1"
   id="svg5"
   inkscape:version="1.2 (dc2aedaf03, 2022-05-15)"
   xml:space="preserve"
   sodipodi:docname="Wanderweg_Logo_Dark.svg"
   xmlns:inkscape="http://www.inkscape.org/namespaces/inkscape"
   xmlns:sodipodi="http://sodipodi.sourceforge.net/DTD/sodipodi-0.dtd"
   xmlns="http://www.w3.org/2000/svg"
   xmlns:svg="http://www.w3.org/2000/svg"><sodipodi:namedview
     id="namedview7"
     pagecolor="#4a4a4a"
     bordercolor="#999999"
     borderopacity="1"
     inkscape:showpageshadow="0"
     inkscape:pageopacity="0"
     inkscape:pagecheckerboard="0"
     inkscape:deskcolor="#252525"
     inkscape:document-units="mm"
     showgrid="true"
     guidecolor="#0095ff"
     guideopacity="0.74901961"
     inkscape:zoom="1.3037281"
     inkscape:cx="297.22455"
     inkscape:cy="467.12193"
     inkscape:window-width="3840"
     inkscape:window-height="2050"
     inkscape:window-x="-12"
     inkscape:window-y="-12"
     inkscape:window-maximized="1"
     inkscape:current-layer="g432"><sodipodi:guide
       position="0,270.93333"
       orientation="0,1024"
       id="guide132"
       inkscape:locked="false" /><sodipodi:guide
       position="270.93333,270.93333"
       orientation="1024,0"
       id="guide134"
       inkscape:locked="false" /><sodipodi:guide
       position="270.93333,0"
       orientation="0,-1024"
       id="guide136"
       inkscape:locked="false" /><sodipodi:guide
       position="0,0"
       orientation="-1024,0"
       id="guide138"
       inkscape:locked="false" /><inkscape:grid
       type="xygrid"
       id="grid140"
       originx="0"
       originy="0"
       spacingx="8.4666666"
       spacingy="8.4666666"
       empspacing="4"
       color="#e5e5e5"
       opacity="0.14901961"
       empcolor="#ffffff"
       empopacity="0.40784314" /></sodipodi:namedview><defs
     id="defs2"><style
       id="style313">.cls-1{fill:#2d2775;}.cls-2{fill:#55cae0;}.cls-3{fill:#fa1c66;}.cls-4{fill:#171651;}.cls-5{fill:#c4ddeb;}</style></defs><g
     inkscape:label="Layer 1"
     inkscape:groupmode="layer"
     id="layer1"><g
       id="g432"
       transform="matrix(0.14765587,0,0,0.14765587,-0.30255425,40.856854)"><path
         class="cls-1"
         d="M 108.31,918.57 89,699.11 h 35.67 l 6.4,95.89 4.67,92.32 h 7 L 143.84,795 160,700.48 h 47.32 l 16.34,94.52 1,92.32 h 7 l 4.62,-92.32 6.58,-95.87 h 35.66 l -19.47,219.44 h -58.71 l -9.05,-63.92 -4.12,-124 h -7 l -4.12,124 -9.05,63.92 z"
         id="path317"
         style="fill:#fd2d72;fill-opacity:1" /><path
         class="cls-1"
         d="M 333.53,918.57 362.2,699.11 h 57.06 l 28.66,219.46 h -36.35 l -4.93,-50.34 h -31.83 l -4.93,50.34 z M 378.11,837 h 25.23 l -4.8,-48.28 -4,-58.3 h -7.69 l -4,58.3 z"
         id="path319"
         style="fill:#fd2d72;fill-opacity:1" /><path
         class="cls-1"
         d="M 518.15,918.57 V 699.11 h 52.4 L 586,768.92 602,887.3 h 6.85 l -6.44,-98.21 -2.88,-90 h 34.29 V 918.57 H 578.91 L 563.14,845.05 550.79,730.11 h -7.4 l 6,104.79 3,83.67 z"
         id="path321"
         style="fill:#fd2d72;fill-opacity:1" /><path
         class="cls-1"
         d="M 712.37,918.57 V 699.11 H 763 q 27.85,0 40.33,11.93 12.48,11.93 12.89,39.37 0.42,20.85 0.55,39.57 0.13,18.72 0,37.44 -0.13,18.74 -0.55,39.57 -0.41,27.59 -12.89,39.58 -12.48,11.99 -40.46,12 z M 747.9,887.3 h 15 q 8.91,0 13.37,-4.12 4.46,-4.12 4.59,-11.93 0.42,-15.78 0.62,-31.34 0.2,-15.56 0.21,-31.21 0,-15.63 -0.21,-31.27 -0.21,-15.64 -0.62,-31.14 -0.13,-7.81 -4.59,-11.86 -4.46,-4.05 -13.24,-4 H 747.9 Z"
         id="path323"
         style="fill:#fd2d72;fill-opacity:1" /><path
         class="cls-1"
         d="M 893.7,918.57 V 699.11 h 86.69 v 31.27 h -51.17 v 61.17 h 48.42 v 31.28 h -48.42 v 64.47 h 51.17 v 31.27 z"
         id="path325"
         style="fill:#fd2d72;fill-opacity:1" /><path
         class="cls-1"
         d="M 1053.22,918.57 V 699.11 h 48.14 q 27.71,0 40,11.38 12.29,11.38 13.24,37.58 0.27,8.79 0.41,15.85 0.14,7.06 0,14 -0.13,6.93 -0.41,15.15 -0.55,16.74 -5.62,27.23 A 33.63,33.63 0 0 1 1133,836.13 l 24.83,82.44 h -37.58 L 1099.71,842 h -11 v 76.54 z m 35.52,-107.81 h 12.48 q 8.92,0 13.24,-4 4.32,-4 4.73,-11.86 0.42,-7.68 0.55,-16 0.13,-8.32 0,-16.6 -0.13,-8.29 -0.55,-16 -0.42,-7.71 -4.73,-11.86 -4.32,-4 -13.1,-4 h -12.62 z"
         id="path327"
         style="fill:#fd2d72;fill-opacity:1" /><path
         class="cls-1"
         d="M 1243.32,918.57 1224,699.11 h 35.66 l 6.45,95.87 4.66,92.32 h 7 l 1.1,-92.32 16.18,-94.5 h 47.32 l 16.33,94.5 1,92.32 h 7 l 4.66,-92.32 6.59,-95.87 h 35.66 l -19.48,219.46 h -58.7 l -9.06,-63.92 -4.11,-124 h -7 l -4.11,124 -9,63.92 z"
         id="path329"
         style="fill:#fd2d72;fill-opacity:1" /><path
         class="cls-1"
         d="M 1485.82,918.57 V 699.11 h 86.69 v 31.27 h -51.16 v 61.17 h 48.42 v 31.28 h -48.42 v 64.47 h 51.16 v 31.27 z"
         id="path331"
         style="fill:#fd2d72;fill-opacity:1" /><path
         class="cls-1"
         d="m 1697.05,921 q -18.65,0 -30,-5.08 a 32.29,32.29 0 0 1 -16.53,-16.18 q -5.21,-11.12 -5.89,-29.08 -0.42,-13.31 -0.62,-29.08 -0.2,-15.77 -0.21,-32.17 0,-16.38 0.21,-32 0.21,-15.62 0.62,-28.67 0.67,-18.93 6.1,-30.45 a 33,33 0 0 1 16.66,-16.6 q 11.25,-5.07 29.63,-5.07 26.07,0 38.06,11.59 11.99,11.59 13.52,38.47 0.4,7.41 0.41,16.53 0.01,9.12 -0.41,16.67 h -35.39 q 0.4,-8.65 0.41,-19.89 0.01,-11.24 -0.41,-19.75 -0.42,-7.28 -4.53,-11 -4.11,-3.72 -11.66,-3.7 -8.22,0 -12.41,3.7 -4.19,3.7 -4.6,11 -0.69,15.76 -1,33.19 -0.31,17.43 -0.35,35.32 0,17.9 0.35,35.25 0.35,17.35 1,33.13 0.42,7.4 4.6,11.17 4.18,3.77 12.41,3.78 8.23,0 12.9,-3.78 c 3.1,-2.51 4.8,-6.24 5.07,-11.17 0.18,-2.84 0.3,-6.15 0.34,-9.95 0.04,-3.8 0.05,-7.61 0,-11.45 -0.05,-3.84 -0.16,-7.14 -0.34,-9.88 h -15.77 V 815 h 50.34 q 0.54,11.94 0.41,26.68 -0.13,14.74 -0.69,29 -1.23,27 -13.37,38.68 -12.14,11.68 -38.86,11.64 z"
         id="path333"
         style="fill:#fd2d72;fill-opacity:1" /><g
         id="g4193"
         style="fill:#55cae0;fill-opacity:1"><path
           class="cls-2"
           d="m 544.41,1219.49 q -18.64,0 -30,-5.08 a 32.23,32.23 0 0 1 -16.52,-16.18 q -5.22,-11.12 -5.9,-29.08 -0.42,-13.31 -0.62,-29.08 -0.2,-15.77 -0.21,-32.17 0,-16.38 0.21,-32 0.21,-15.62 0.62,-28.67 0.68,-18.93 6.1,-30.45 a 33,33 0 0 1 16.67,-16.6 q 11.24,-5.07 29.62,-5.07 26.07,0 38.07,11.59 12,11.59 13.55,38.45 0.4,7.41 0.41,16.53 0.01,9.12 -0.41,16.67 h -35.4 q 0.4,-8.65 0.41,-19.89 0.01,-11.24 -0.41,-19.75 c -0.28,-4.85 -1.78,-8.51 -4.53,-11 -2.75,-2.49 -6.63,-3.7 -11.66,-3.7 q -8.22,0 -12.41,3.7 -4.19,3.7 -4.59,11 -0.69,15.76 -1,33.19 -0.31,17.43 -0.35,35.32 0,17.9 0.35,35.25 0.35,17.35 1,33.13 0.4,7.39 4.59,11.17 4.19,3.78 12.41,3.78 8.24,0 12.9,-3.78 c 3.1,-2.51 4.8,-6.24 5.07,-11.17 0.18,-2.84 0.3,-6.15 0.34,-9.95 0.04,-3.8 0,-7.61 0,-11.45 0,-3.84 -0.16,-7.14 -0.34,-9.88 h -15.77 v -30.86 H 597 q 0.54,11.94 0.41,26.68 -0.13,14.74 -0.69,29 -1.23,27 -13.37,38.68 -12.14,11.68 -38.94,11.67 z"
           id="path335"
           style="fill:#55cae0;fill-opacity:1" /><path
           class="cls-2"
           d="m 663.6,1217 28.67,-219.46 h 57.06 L 778,1217 h -36.35 l -4.94,-50.34 H 704.89 L 700,1217 Z m 44.58,-81.61 h 25.24 l -4.8,-48.28 -4,-58.3 H 717 l -4,58.3 z"
           id="path337"
           style="fill:#55cae0;fill-opacity:1" /><path
           class="cls-2"
           d="M 848.22,1217 V 997.56 h 58 l 16.88,84.76 4.8,103.15 h 6.72 l 4.52,-103.15 17.15,-84.76 h 57.75 V 1217 h -35.51 v -66.66 l 6.86,-121.53 h -7.13 l -12.35,123.86 -15.22,64 h -39.23 l -15,-64 L 884,1028.83 h -6.85 l 6.58,121.53 V 1217 Z"
           id="path339"
           style="fill:#55cae0;fill-opacity:1" /><path
           class="cls-2"
           d="M 1092.51,1217 V 997.56 h 86.69 v 31.27 H 1128 V 1090 h 48.42 v 31.28 H 1128 v 64.47 h 51.17 V 1217 Z"
           id="path341"
           style="fill:#55cae0;fill-opacity:1" /><path
           class="cls-2"
           d="m 1300.86,1219.49 q -27.3,0 -39,-11.66 -11.7,-11.66 -12.86,-38.68 -0.13,-5.36 -0.14,-11.11 -0.01,-5.75 0.28,-11.46 c 0.18,-3.79 0.45,-7.52 0.82,-11.17 h 33.33 q -0.55,10.56 -0.62,20.91 -0.07,10.35 0.62,19.28 0.69,7.39 4.87,11.17 4.18,3.78 12.69,3.78 8.36,0 12.2,-3.78 3.84,-3.78 4.53,-11.17 c 0.36,-3.66 0.62,-7.14 0.75,-10.43 0.13,-3.29 0.14,-6.63 0,-10 -0.14,-3.37 -0.39,-7 -0.75,-10.7 a 27.53,27.53 0 0 0 -3.36,-12.07 q -3,-5.22 -9.81,-7 l -20.44,-5.21 q -13.31,-3.42 -21,-9.94 a 36.49,36.49 0 0 1 -11,-16.39 80.18,80.18 0 0 1 -3.77,-23.32 q -0.15,-6.72 -0.14,-13 0.01,-6.28 0.14,-12.42 0.68,-18 6,-29 a 32.24,32.24 0 0 1 16.6,-16 q 11.31,-5 30.11,-5 26.46,0 38.33,11.59 11.87,11.59 13,38.47 0.27,6.31 0.13,15.5 -0.14,9.19 -0.55,17.7 h -34 q 0.4,-9.88 0.55,-19.82 0.15,-9.94 -0.28,-19.82 -0.27,-7.28 -4.73,-11 -4.46,-3.72 -12.41,-3.7 -8.5,0 -12.49,3.7 -3.99,3.7 -4.8,11 -0.69,7.95 -0.68,15.91 0.01,7.96 0.68,15.91 a 28.63,28.63 0 0 0 3.64,12.07 c 2,3.29 5.42,5.53 10.35,6.72 l 18,4.25 q 14.13,3.43 22.22,10.22 a 37.68,37.68 0 0 1 11.59,16.94 80.39,80.39 0 0 1 3.91,23.73 q 0.13,4.53 0.14,8.57 0.01,4.04 -0.07,8 c 0,2.6 -0.16,5.33 -0.34,8.16 q -1.11,27 -12.83,38.68 -11.72,11.68 -39.41,11.59 z"
           id="path343"
           style="fill:#55cae0;fill-opacity:1" /></g><path
         class="cls-3"
         d="m 1357.17,622.29 c 0,0 -9.07,-65.85 -9.07,-127.26 1.39,-73.32 -13.5,-164 -40.68,-244 -26.36,-77.72 -73.46,-173 -148,-186 a 200.1,200.1 0 0 0 -33.86,-3 c -50.06,0 -83.47,21.21 -110.31,38.25 -22.46,14.25 -40.22,25.52 -66.72,25.52 -26.5,0 -44.26,-11.27 -66.72,-25.52 C 854.93,83.2 821.52,62 771.44,62 a 200.29,200.29 0 0 0 -33.86,3 C 668.93,76.9 623.78,159.93 598,227.49 c -29.62,77.66 -48,171.22 -49.13,250.28 -0.08,5.86 -0.08,11.59 0,17.19 v 0.33 a 2.28,2.28 0 0 0 0,-0.26 c 0,61.41 -9.07,127.26 -9.07,127.26 h 45.43 l -0.11,-0.14 h 4.06 c -7,-9.23 -13.34,-20.9 -18.56,-35.63 -8.69,-24.54 -13.43,-55.3 -14.12,-91.62 -0.11,-5.54 -0.11,-11.21 0,-17 1.13,-78.22 19.3,-170.79 48.64,-247.67 2.24,-5.86 4.62,-11.84 7.16,-17.87 C 638.16,150.68 679.59,82.8 738.9,72.54 a 193.29,193.29 0 0 1 32.57,-2.91 c 47.85,0 80.23,20.56 106.26,37.06 23.5,14.92 42.06,26.71 70.79,26.71 28.73,0 47.28,-11.79 70.79,-26.71 26,-16.5 58.38,-37.06 106.24,-37.06 a 193.38,193.38 0 0 1 32.57,2.91 c 58.3,10.09 99.46,74.7 126.53,139.47 5.84,14 11,28 15.61,41.43 26.89,79.32 41.65,169.05 40.26,241.5 a 0.31,0.31 0 0 1 0,0.19 c -0.19,9.61 -0.67,18.92 -1.43,27.85 -3.12,36.55 -11.14,66.15 -23.76,87.92 a 107.19,107.19 0 0 1 -7.57,11.39 h 4 v 0 z"
         id="path345"
         style="fill:#fd2d72;fill-opacity:1" /><path
         class="cls-2"
         d="M 952.45,622.27 H 706.57 c -0.4,0.52 25.48,-7.29 67.63,-47.25 14.92,-14.72 34,32.13 50.67,34.59 v 0 c 2.59,-6.17 -25.87,-53.62 -8.51,-79 6.68,-8.55 13.82,-16.46 21.13,-25.95 a 74.27,74.27 0 0 1 7,-8 c 8.79,-8.22 13.62,-1.75 32.36,25.43 4.07,5.9 9.47,13.58 15.68,22.22 v 0 0 c 17.64,24.33 41.57,56.35 59.92,77.96 z"
         id="path347" /><path
         class="cls-2"
         d="m 990,473 c 12.72,64.72 -1.43,81.11 -26.53,49.81 -39.58,-49.35 -37.72,-33.05 -11.28,39.41 8.76,24 18.12,45.07 23.83,60.1 h 188.25 c 0,0 -149.18,-174.83 -159.72,-187.75 C 983.21,408.38 977.27,408.22 990,473 Z"
         id="path349" /><path
         class="cls-1"
         d="m 1152.24,106.29 c -98.22,-17 -118.3,61.35 -203.75,61.35 C 863.04,167.64 843,89.29 744.71,106.29 673,118.7 612.63,274.81 595.53,412.09 v 0 c -13.06,104.83 -0.91,198.66 50.62,209.11 v -0.17 a 42.94,42.94 0 0 0 7.67,1.08 c 21.76,-2.49 75,-41 136.54,-107.93 68.85,-74.92 52.63,-84.4 119.85,8.74 l -11.1,-44.62 a 15.72,15.72 0 0 1 4.25,-15.74 l 7.25,-7.14 c 15,-14.79 40.22,-39.88 58.89,-59.7 a 53.87,53.87 0 0 1 5.64,-5.23 c 24.94,-19.72 41.53,16.05 93.77,76.88 53.49,62.32 115.37,146.67 153.58,154.27 3.19,0.38 5.33,0.61 5.33,0.61 H 1241 c 33.94,0 53.3,-31.83 61.16,-79.69 C 1325.26,402 1249.17,123 1152.24,106.29 Z M 737.52,208.21 h 10.58 v 31 H 737.52 Z M 813,412.29 H 737.52 V 348 h -64.3 v -75.47 h 13.59 V 340 h 61.29 v 61.29 H 813 Z M 877.26,348 h -28.42 v -8 h 28.42 z m 257.13,-170 a 57.2,57.2 0 0 1 57.14,57.14 c 0,0.23 0,0.46 0,0.71 a 53,53 0 0 0 -8,-0.67 c -1,0 -1.92,0.1 -2.89,0.15 0.05,-0.95 0.15,-1.9 0.15,-2.87 a 54.51,54.51 0 0 0 -50.43,-54.27 c 1.33,-0.14 2.64,-0.19 4.03,-0.19 z m -8.09,223.3 a 54.52,54.52 0 0 0 54.46,-54.46 c 0,-1 -0.1,-1.92 -0.15,-2.87 1,0 1.9,0.13 2.89,0.13 a 54.42,54.42 0 0 0 18.88,-105.47 57.12,57.12 0 0 1 -8,113.68 c -1,0 -2,-0.1 -3,-0.16 0.06,1 0.15,2 0.15,3 a 57.1,57.1 0 0 1 -108.9,24.06 54.34,54.34 0 0 0 43.67,22.05 z m -57.2,-57.2 c 1,0 1.92,-0.09 2.89,-0.13 -0.06,0.95 -0.15,1.9 -0.15,2.87 a 52.65,52.65 0 0 0 0.27,5.35 57.13,57.13 0 0 1 -51.57,-38 54.44,54.44 0 0 0 48.56,29.87 z"
         id="path351"
         style="fill:#473db9;fill-opacity:1" /><g
         id="g4186"
         style="fill:#29278f;fill-opacity:1"><path
           class="cls-4"
           d="M 1169,242.8 A 26.88,26.88 0 1 1 1142.12,215.92 26.88,26.88 0 0 1 1169,242.8 Z"
           id="path353"
           style="fill:#29278f;fill-opacity:1" /><path
           class="cls-4"
           d="m 1229,302.82 a 26.88,26.88 0 1 1 -26.88,-26.88 26.88,26.88 0 0 1 26.88,26.88 z"
           id="path355"
           style="fill:#29278f;fill-opacity:1" /><path
           class="cls-4"
           d="M 1169,362.84 A 26.88,26.88 0 1 1 1142.08,336 26.88,26.88 0 0 1 1169,362.84 Z"
           id="path357"
           style="fill:#29278f;fill-opacity:1" /><path
           class="cls-4"
           d="m 1108.92,302.82 a 26.87,26.87 0 1 1 -26.85,-26.88 26.87,26.87 0 0 1 26.85,26.88 z"
           id="path359"
           style="fill:#29278f;fill-opacity:1" /><polygon
           class="cls-4"
           points="839.19,325.39 816.63,302.82 839.19,280.24 884.97,280.24 884.97,325.39 "
           id="polygon361"
           style="fill:#29278f;fill-opacity:1" /><polygon
           class="cls-4"
           points="798.08,284.26 775.5,261.68 775.5,215.92 820.65,215.92 820.65,261.68 "
           id="polygon363"
           style="fill:#29278f;fill-opacity:1" /><polygon
           class="cls-4"
           points="711.18,325.39 711.18,280.24 756.94,280.24 779.52,302.82 756.94,325.39 "
           id="polygon365"
           style="fill:#29278f;fill-opacity:1" /><polygon
           class="cls-4"
           points="775.5,389.71 775.5,343.93 798.08,321.36 820.65,343.93 820.65,389.71 "
           id="polygon367"
           style="fill:#29278f;fill-opacity:1" /><path
           class="cls-4"
           d="m 899.11,478.32 11.1,44.62 c -67.22,-93.14 -51,-83.66 -119.85,-8.74 -61.52,66.95 -114.78,105.44 -136.54,107.93 a 42.94,42.94 0 0 1 -7.67,-1.08 v 0.17 c -51.53,-10.45 -63.68,-104.28 -50.62,-209.11 1.11,109.63 47.86,160.21 100.05,134.49 70.85,-34.93 132.89,-125.73 153.26,-146.69 10.52,-10.83 37.82,21.63 61.77,55.53 l -7.25,7.14 a 15.72,15.72 0 0 0 -4.25,15.74 z"
           id="path385"
           style="fill:#29278f;fill-opacity:1" /><path
           class="cls-4"
           d="m 1302.15,542.58 c -7.86,47.86 -27.22,79.69 -61.16,79.69 h -13.17 c 0,0 -2.14,-0.23 -5.33,-0.61 -38.21,-7.6 -100.09,-91.95 -153.58,-154.27 -52.24,-60.83 -68.83,-96.6 -93.77,-76.88 34.05,-32.32 36.05,-47.65 92.17,21.78 59.08,73 123.52,156 171.85,167 21.84,5.02 44.56,-14.17 62.99,-36.71 z"
           id="path387"
           style="fill:#29278f;fill-opacity:1" /></g><path
         class="cls-3"
         d="m 1161.27,235.1 a 26.88,26.88 0 1 1 -26.88,-26.88 26.88,26.88 0 0 1 26.88,26.88 z"
         id="path369"
         style="fill:#fd2d72;fill-opacity:1" /><path
         class="cls-3"
         d="m 1221.29,295.12 a 26.88,26.88 0 1 1 -26.88,-26.88 26.89,26.89 0 0 1 26.88,26.88 z"
         id="path371"
         style="fill:#fd2d72;fill-opacity:1" /><path
         class="cls-3"
         d="m 1161.27,355.14 a 26.88,26.88 0 1 1 -26.88,-26.88 26.89,26.89 0 0 1 26.88,26.88 z"
         id="path373"
         style="fill:#fd2d72;fill-opacity:1" /><path
         class="cls-3"
         d="m 1101.23,295.12 a 26.87,26.87 0 1 1 -26.86,-26.88 26.88,26.88 0 0 1 26.86,26.88 z"
         id="path375"
         style="fill:#fd2d72;fill-opacity:1" /><polygon
         class="cls-3"
         points="831.5,317.7 808.94,295.12 831.5,272.55 877.28,272.55 877.28,317.7 "
         id="polygon377"
         style="fill:#fd2d72;fill-opacity:1" /><polygon
         class="cls-3"
         points="790.38,276.56 767.8,253.99 767.8,208.22 812.96,208.22 812.96,253.99 "
         id="polygon379"
         style="fill:#fd2d72;fill-opacity:1" /><polygon
         class="cls-3"
         points="703.48,317.7 703.48,272.55 749.25,272.55 771.82,295.12 749.25,317.7 "
         id="polygon381"
         style="fill:#fd2d72;fill-opacity:1" /><polygon
         class="cls-3"
         points="767.8,382.02 767.8,336.24 790.38,313.66 812.96,336.24 812.96,382.02 "
         id="polygon383"
         style="fill:#fd2d72;fill-opacity:1" /><path
         class="cls-5"
         d="M 892.62,544.28 Z"
         id="path389" /></g></g></svg>
